G04 #@! TF.GenerationSoftware,KiCad,Pcbnew,(6.0.9)*
G04 #@! TF.CreationDate,2024-03-06T19:42:55+11:00*
G04 #@! TF.ProjectId,psneev8,70736e65-6576-4382-9e6b-696361645f70,rev?*
G04 #@! TF.SameCoordinates,Original*
G04 #@! TF.FileFunction,Copper,L2,Bot*
G04 #@! TF.FilePolarity,Positive*
%FSLAX46Y46*%
G04 Gerber Fmt 4.6, Leading zero omitted, Abs format (unit mm)*
G04 Created by KiCad (PCBNEW (6.0.9)) date 2024-03-06 19:42:55*
%MOMM*%
%LPD*%
G01*
G04 APERTURE LIST*
G04 #@! TA.AperFunction,SMDPad,CuDef*
%ADD10R,1.000000X1.000000*%
G04 #@! TD*
G04 #@! TA.AperFunction,ViaPad*
%ADD11C,0.500000*%
G04 #@! TD*
G04 #@! TA.AperFunction,Conductor*
%ADD12C,0.152400*%
G04 #@! TD*
G04 APERTURE END LIST*
D10*
X104394000Y-135382000D03*
X104394000Y-128905000D03*
X94234000Y-127508000D03*
X96393000Y-127508000D03*
X99822000Y-137668000D03*
X102108000Y-137668000D03*
D11*
X100584000Y-134874000D03*
X88900000Y-127029900D03*
X89916000Y-132207000D03*
X104394000Y-136652000D03*
X100330000Y-131953000D03*
X103505000Y-129286000D03*
X97663000Y-129540000D03*
X92837000Y-128143000D03*
X87884000Y-133604000D03*
X95885000Y-134747000D03*
X87757000Y-135636000D03*
X96774000Y-134874000D03*
X98425000Y-135128000D03*
X93345000Y-136779000D03*
X96774000Y-129540000D03*
X95885000Y-129540000D03*
X102489000Y-136017000D03*
X98552000Y-138049000D03*
X103251000Y-137033000D03*
D12*
X89916000Y-128045900D02*
X88900000Y-127029900D01*
X104394000Y-136652000D02*
X104296400Y-136554400D01*
X89916000Y-132207000D02*
X89916000Y-128045900D01*
X104296400Y-136554400D02*
X100994400Y-136554400D01*
X100994400Y-136554400D02*
X100584000Y-136144000D01*
X100584000Y-136144000D02*
X100584000Y-134874000D01*
X103505000Y-129286000D02*
X104013000Y-129286000D01*
X97536000Y-129794000D02*
X97663000Y-129667000D01*
X104013000Y-129286000D02*
X104394000Y-128905000D01*
X94712600Y-130018600D02*
X97311400Y-130018600D01*
X97663000Y-129667000D02*
X97663000Y-129540000D01*
X92837000Y-128143000D02*
X94712600Y-130018600D01*
X97311400Y-130018600D02*
X97536000Y-129794000D01*
X95758000Y-134620000D02*
X95885000Y-134747000D01*
X91694000Y-133604000D02*
X92456000Y-134366000D01*
X87884000Y-133604000D02*
X91694000Y-133604000D01*
X92456000Y-134366000D02*
X95504000Y-134366000D01*
X95504000Y-134366000D02*
X95758000Y-134620000D01*
X87757000Y-135636000D02*
X96012000Y-135636000D01*
X96012000Y-135636000D02*
X96774000Y-134874000D01*
X98044000Y-136779000D02*
X98425000Y-136398000D01*
X93345000Y-136779000D02*
X98044000Y-136779000D01*
X98425000Y-136398000D02*
X98425000Y-135128000D01*
X96774000Y-129540000D02*
X96393000Y-129159000D01*
X96393000Y-129159000D02*
X96393000Y-127508000D01*
X94234000Y-127508000D02*
X94234000Y-128778000D01*
X94996000Y-129540000D02*
X95885000Y-129540000D01*
X94234000Y-128778000D02*
X94996000Y-129540000D01*
X103759000Y-136017000D02*
X104394000Y-135382000D01*
X102489000Y-136017000D02*
X103759000Y-136017000D01*
X99441000Y-138049000D02*
X99822000Y-137668000D01*
X98552000Y-138049000D02*
X99441000Y-138049000D01*
X103251000Y-137033000D02*
X103251000Y-137541000D01*
X103251000Y-137541000D02*
X103124000Y-137668000D01*
X103124000Y-137668000D02*
X102108000Y-137668000D01*
G04 #@! TA.AperFunction,Conductor*
G36*
X88703539Y-126562313D02*
G01*
X88728849Y-126606150D01*
X88720059Y-126656000D01*
X88689568Y-126684934D01*
X88665420Y-126697238D01*
X88665415Y-126697242D01*
X88660229Y-126699884D01*
X88569984Y-126790129D01*
X88567343Y-126795312D01*
X88567341Y-126795315D01*
X88530296Y-126868021D01*
X88512043Y-126903845D01*
X88492078Y-127029900D01*
X88512043Y-127155955D01*
X88514686Y-127161143D01*
X88514687Y-127161145D01*
X88567341Y-127264485D01*
X88567343Y-127264488D01*
X88569984Y-127269671D01*
X88660229Y-127359916D01*
X88665412Y-127362557D01*
X88665415Y-127362559D01*
X88768755Y-127415213D01*
X88768757Y-127415214D01*
X88773945Y-127417857D01*
X88900000Y-127437822D01*
X88935210Y-127432245D01*
X88984898Y-127441903D01*
X88999112Y-127453008D01*
X89665226Y-128119123D01*
X89686618Y-128165000D01*
X89686900Y-128171449D01*
X89686900Y-131835661D01*
X89669587Y-131883227D01*
X89665226Y-131887987D01*
X89585984Y-131967229D01*
X89583343Y-131972412D01*
X89583341Y-131972415D01*
X89530687Y-132075755D01*
X89528043Y-132080945D01*
X89508078Y-132207000D01*
X89528043Y-132333055D01*
X89530686Y-132338243D01*
X89530687Y-132338245D01*
X89583341Y-132441585D01*
X89583343Y-132441588D01*
X89585984Y-132446771D01*
X89676229Y-132537016D01*
X89681412Y-132539657D01*
X89681415Y-132539659D01*
X89784755Y-132592313D01*
X89784757Y-132592314D01*
X89789945Y-132594957D01*
X89916000Y-132614922D01*
X90042055Y-132594957D01*
X90047243Y-132592314D01*
X90047245Y-132592313D01*
X90150585Y-132539659D01*
X90150588Y-132539657D01*
X90155771Y-132537016D01*
X90246016Y-132446771D01*
X90248657Y-132441588D01*
X90248659Y-132441585D01*
X90301313Y-132338245D01*
X90301314Y-132338243D01*
X90303957Y-132333055D01*
X90323922Y-132207000D01*
X90303957Y-132080945D01*
X90301313Y-132075755D01*
X90248659Y-131972415D01*
X90248657Y-131972412D01*
X90246016Y-131967229D01*
X90166774Y-131887987D01*
X90145382Y-131842111D01*
X90145100Y-131835661D01*
X90145100Y-128143000D01*
X92429078Y-128143000D01*
X92449043Y-128269055D01*
X92451686Y-128274243D01*
X92451687Y-128274245D01*
X92504341Y-128377585D01*
X92504343Y-128377588D01*
X92506984Y-128382771D01*
X92597229Y-128473016D01*
X92602412Y-128475657D01*
X92602415Y-128475659D01*
X92705755Y-128528313D01*
X92705757Y-128528314D01*
X92710945Y-128530957D01*
X92837000Y-128550922D01*
X92872210Y-128545345D01*
X92921898Y-128555003D01*
X92936112Y-128566108D01*
X94544995Y-130174992D01*
X94547662Y-130177802D01*
X94574930Y-130208086D01*
X94590531Y-130215032D01*
X94597626Y-130218191D01*
X94607827Y-130223730D01*
X94628664Y-130237261D01*
X94637348Y-130238636D01*
X94655868Y-130244123D01*
X94656795Y-130244536D01*
X94656799Y-130244537D01*
X94663903Y-130247700D01*
X94688747Y-130247700D01*
X94700323Y-130248611D01*
X94724858Y-130252497D01*
X94732370Y-130250484D01*
X94732374Y-130250484D01*
X94733351Y-130250222D01*
X94752504Y-130247700D01*
X97303465Y-130247700D01*
X97307338Y-130247801D01*
X97348039Y-130249934D01*
X97355297Y-130247148D01*
X97355298Y-130247148D01*
X97371229Y-130241033D01*
X97382359Y-130237736D01*
X97389226Y-130236276D01*
X97406665Y-130232569D01*
X97413780Y-130227400D01*
X97430753Y-130218184D01*
X97431699Y-130217821D01*
X97431700Y-130217820D01*
X97438964Y-130215032D01*
X97456533Y-130197463D01*
X97465363Y-130189922D01*
X97485458Y-130175322D01*
X97489854Y-130167708D01*
X97501614Y-130152382D01*
X97697178Y-129956818D01*
X97737927Y-129936055D01*
X97757925Y-129932887D01*
X97789055Y-129927957D01*
X97794243Y-129925314D01*
X97794245Y-129925313D01*
X97897585Y-129872659D01*
X97897588Y-129872657D01*
X97902771Y-129870016D01*
X97993016Y-129779771D01*
X97995657Y-129774588D01*
X97995659Y-129774585D01*
X98048313Y-129671245D01*
X98048314Y-129671243D01*
X98050957Y-129666055D01*
X98070922Y-129540000D01*
X98050957Y-129413945D01*
X98048313Y-129408755D01*
X97995659Y-129305415D01*
X97995657Y-129305412D01*
X97993016Y-129300229D01*
X97978787Y-129286000D01*
X103097078Y-129286000D01*
X103117043Y-129412055D01*
X103119686Y-129417243D01*
X103119687Y-129417245D01*
X103172341Y-129520585D01*
X103172343Y-129520588D01*
X103174984Y-129525771D01*
X103265229Y-129616016D01*
X103270412Y-129618657D01*
X103270415Y-129618659D01*
X103373755Y-129671313D01*
X103373757Y-129671314D01*
X103378945Y-129673957D01*
X103505000Y-129693922D01*
X103631055Y-129673957D01*
X103636243Y-129671314D01*
X103636245Y-129671313D01*
X103739585Y-129618659D01*
X103739588Y-129618657D01*
X103744771Y-129616016D01*
X103787537Y-129573250D01*
X103833413Y-129551858D01*
X103854300Y-129552998D01*
X103875373Y-129557190D01*
X103875374Y-129557190D01*
X103878943Y-129557900D01*
X104393929Y-129557900D01*
X104909056Y-129557899D01*
X104953658Y-129549028D01*
X104967170Y-129540000D01*
X104998173Y-129519284D01*
X105004234Y-129515234D01*
X105038028Y-129464658D01*
X105044916Y-129430034D01*
X105046190Y-129423627D01*
X105046190Y-129423626D01*
X105046900Y-129420057D01*
X105046899Y-128389944D01*
X105038028Y-128345342D01*
X105004234Y-128294766D01*
X104953658Y-128260972D01*
X104946513Y-128259551D01*
X104946511Y-128259550D01*
X104912627Y-128252810D01*
X104912626Y-128252810D01*
X104909057Y-128252100D01*
X104394071Y-128252100D01*
X103878944Y-128252101D01*
X103834342Y-128260972D01*
X103828284Y-128265020D01*
X103828282Y-128265021D01*
X103789827Y-128290716D01*
X103783766Y-128294766D01*
X103749972Y-128345342D01*
X103748551Y-128352487D01*
X103748550Y-128352489D01*
X103741810Y-128386373D01*
X103741100Y-128389943D01*
X103741101Y-128658900D01*
X103741101Y-128833357D01*
X103723788Y-128880923D01*
X103679951Y-128906233D01*
X103642391Y-128900619D01*
X103641784Y-128902487D01*
X103636245Y-128900688D01*
X103631055Y-128898043D01*
X103505000Y-128878078D01*
X103378945Y-128898043D01*
X103373757Y-128900686D01*
X103373755Y-128900687D01*
X103270415Y-128953341D01*
X103270412Y-128953343D01*
X103265229Y-128955984D01*
X103174984Y-129046229D01*
X103172343Y-129051412D01*
X103172341Y-129051415D01*
X103128400Y-129137655D01*
X103117043Y-129159945D01*
X103097078Y-129286000D01*
X97978787Y-129286000D01*
X97902771Y-129209984D01*
X97897588Y-129207343D01*
X97897585Y-129207341D01*
X97794245Y-129154687D01*
X97794243Y-129154686D01*
X97789055Y-129152043D01*
X97663000Y-129132078D01*
X97536945Y-129152043D01*
X97531757Y-129154686D01*
X97531755Y-129154687D01*
X97428415Y-129207341D01*
X97428412Y-129207343D01*
X97423229Y-129209984D01*
X97332984Y-129300229D01*
X97330343Y-129305412D01*
X97330341Y-129305415D01*
X97284435Y-129395512D01*
X97247414Y-129430034D01*
X97196865Y-129432684D01*
X97156438Y-129402220D01*
X97152565Y-129395512D01*
X97106659Y-129305415D01*
X97106657Y-129305412D01*
X97104016Y-129300229D01*
X97013771Y-129209984D01*
X97008588Y-129207343D01*
X97008585Y-129207341D01*
X96905245Y-129154687D01*
X96905243Y-129154686D01*
X96900055Y-129152043D01*
X96774000Y-129132078D01*
X96738790Y-129137655D01*
X96689103Y-129127997D01*
X96674889Y-129116892D01*
X96643774Y-129085777D01*
X96622382Y-129039901D01*
X96622100Y-129033451D01*
X96622100Y-128234899D01*
X96639413Y-128187333D01*
X96683250Y-128162023D01*
X96696100Y-128160899D01*
X96908056Y-128160899D01*
X96952658Y-128152028D01*
X96966170Y-128143000D01*
X96997173Y-128122284D01*
X97003234Y-128118234D01*
X97037028Y-128067658D01*
X97038451Y-128060508D01*
X97045190Y-128026627D01*
X97045190Y-128026626D01*
X97045900Y-128023057D01*
X97045899Y-126992944D01*
X97037028Y-126948342D01*
X97003234Y-126897766D01*
X96952658Y-126863972D01*
X96945513Y-126862551D01*
X96945511Y-126862550D01*
X96911627Y-126855810D01*
X96911626Y-126855810D01*
X96908057Y-126855100D01*
X96393071Y-126855100D01*
X95877944Y-126855101D01*
X95833342Y-126863972D01*
X95782766Y-126897766D01*
X95748972Y-126948342D01*
X95747551Y-126955487D01*
X95747550Y-126955489D01*
X95740810Y-126989373D01*
X95740100Y-126992943D01*
X95740101Y-128023056D01*
X95748972Y-128067658D01*
X95782766Y-128118234D01*
X95833342Y-128152028D01*
X95840487Y-128153449D01*
X95840489Y-128153450D01*
X95874373Y-128160190D01*
X95874374Y-128160190D01*
X95877943Y-128160900D01*
X96089900Y-128160900D01*
X96137466Y-128178213D01*
X96162776Y-128222050D01*
X96163900Y-128234900D01*
X96163900Y-129109164D01*
X96146587Y-129156730D01*
X96102750Y-129182040D01*
X96056305Y-129175098D01*
X96016250Y-129154689D01*
X96016245Y-129154687D01*
X96011055Y-129152043D01*
X95885000Y-129132078D01*
X95758945Y-129152043D01*
X95753757Y-129154686D01*
X95753755Y-129154687D01*
X95650415Y-129207341D01*
X95650412Y-129207343D01*
X95645229Y-129209984D01*
X95565987Y-129289226D01*
X95520111Y-129310618D01*
X95513661Y-129310900D01*
X95121548Y-129310900D01*
X95073982Y-129293587D01*
X95069222Y-129289226D01*
X94484774Y-128704777D01*
X94463382Y-128658900D01*
X94463100Y-128652451D01*
X94463100Y-128234899D01*
X94480413Y-128187333D01*
X94524250Y-128162023D01*
X94537100Y-128160899D01*
X94749056Y-128160899D01*
X94793658Y-128152028D01*
X94807170Y-128143000D01*
X94838173Y-128122284D01*
X94844234Y-128118234D01*
X94878028Y-128067658D01*
X94879451Y-128060508D01*
X94886190Y-128026627D01*
X94886190Y-128026626D01*
X94886900Y-128023057D01*
X94886899Y-126992944D01*
X94878028Y-126948342D01*
X94844234Y-126897766D01*
X94793658Y-126863972D01*
X94786513Y-126862551D01*
X94786511Y-126862550D01*
X94752627Y-126855810D01*
X94752626Y-126855810D01*
X94749057Y-126855100D01*
X94234071Y-126855100D01*
X93718944Y-126855101D01*
X93674342Y-126863972D01*
X93623766Y-126897766D01*
X93589972Y-126948342D01*
X93588551Y-126955487D01*
X93588550Y-126955489D01*
X93581810Y-126989373D01*
X93581100Y-126992943D01*
X93581101Y-128023056D01*
X93589972Y-128067658D01*
X93623766Y-128118234D01*
X93674342Y-128152028D01*
X93681487Y-128153449D01*
X93681489Y-128153450D01*
X93715373Y-128160190D01*
X93715374Y-128160190D01*
X93718943Y-128160900D01*
X93930900Y-128160900D01*
X93978466Y-128178213D01*
X94003776Y-128222050D01*
X94004900Y-128234900D01*
X94004900Y-128770065D01*
X94004799Y-128773939D01*
X94002897Y-128810224D01*
X93983118Y-128856818D01*
X93938016Y-128879799D01*
X93888694Y-128868411D01*
X93876675Y-128858679D01*
X93260108Y-128242111D01*
X93238716Y-128196234D01*
X93239345Y-128178213D01*
X93244922Y-128143000D01*
X93224957Y-128016945D01*
X93221042Y-128009261D01*
X93169659Y-127908415D01*
X93169657Y-127908412D01*
X93167016Y-127903229D01*
X93076771Y-127812984D01*
X93071588Y-127810343D01*
X93071585Y-127810341D01*
X92968245Y-127757687D01*
X92968243Y-127757686D01*
X92963055Y-127755043D01*
X92837000Y-127735078D01*
X92710945Y-127755043D01*
X92705757Y-127757686D01*
X92705755Y-127757687D01*
X92602415Y-127810341D01*
X92602412Y-127810343D01*
X92597229Y-127812984D01*
X92506984Y-127903229D01*
X92504343Y-127908412D01*
X92504341Y-127908415D01*
X92452958Y-128009261D01*
X92449043Y-128016945D01*
X92429078Y-128143000D01*
X90145100Y-128143000D01*
X90145100Y-128053835D01*
X90145201Y-128049962D01*
X90146927Y-128017025D01*
X90147334Y-128009261D01*
X90138433Y-127986071D01*
X90135136Y-127974941D01*
X90131586Y-127958243D01*
X90129969Y-127950635D01*
X90124800Y-127943520D01*
X90115584Y-127926547D01*
X90115221Y-127925601D01*
X90115220Y-127925600D01*
X90112432Y-127918336D01*
X90094863Y-127900767D01*
X90087322Y-127891937D01*
X90077293Y-127878134D01*
X90072722Y-127871842D01*
X90065108Y-127867446D01*
X90049782Y-127855686D01*
X89323108Y-127129011D01*
X89301716Y-127083134D01*
X89302345Y-127065113D01*
X89307922Y-127029900D01*
X89287957Y-126903845D01*
X89269704Y-126868021D01*
X89232659Y-126795315D01*
X89232657Y-126795312D01*
X89230016Y-126790129D01*
X89139771Y-126699884D01*
X89134585Y-126697242D01*
X89134580Y-126697238D01*
X89110432Y-126684934D01*
X89075910Y-126647914D01*
X89073260Y-126597364D01*
X89103724Y-126556938D01*
X89144027Y-126545000D01*
X105312500Y-126545000D01*
X105360066Y-126562313D01*
X105385376Y-126606150D01*
X105386500Y-126619000D01*
X105386500Y-138557000D01*
X105369187Y-138604566D01*
X105325350Y-138629876D01*
X105312500Y-138631000D01*
X85624500Y-138631000D01*
X85576934Y-138613687D01*
X85551624Y-138569850D01*
X85550500Y-138557000D01*
X85550500Y-138049000D01*
X98144078Y-138049000D01*
X98164043Y-138175055D01*
X98166686Y-138180243D01*
X98166687Y-138180245D01*
X98219341Y-138283585D01*
X98219343Y-138283588D01*
X98221984Y-138288771D01*
X98312229Y-138379016D01*
X98317412Y-138381657D01*
X98317415Y-138381659D01*
X98420755Y-138434313D01*
X98420757Y-138434314D01*
X98425945Y-138436957D01*
X98552000Y-138456922D01*
X98678055Y-138436957D01*
X98683243Y-138434314D01*
X98683245Y-138434313D01*
X98786585Y-138381659D01*
X98786588Y-138381657D01*
X98791771Y-138379016D01*
X98871013Y-138299774D01*
X98916889Y-138278382D01*
X98923339Y-138278100D01*
X99189118Y-138278100D01*
X99230231Y-138290572D01*
X99256283Y-138307980D01*
X99256285Y-138307981D01*
X99262342Y-138312028D01*
X99269487Y-138313449D01*
X99269489Y-138313450D01*
X99303373Y-138320190D01*
X99303374Y-138320190D01*
X99306943Y-138320900D01*
X99821929Y-138320900D01*
X100337056Y-138320899D01*
X100381658Y-138312028D01*
X100399998Y-138299774D01*
X100426173Y-138282284D01*
X100432234Y-138278234D01*
X100466028Y-138227658D01*
X100467451Y-138220508D01*
X100474190Y-138186627D01*
X100474190Y-138186626D01*
X100474900Y-138183057D01*
X100474899Y-137152944D01*
X100466028Y-137108342D01*
X100437989Y-137066378D01*
X100436284Y-137063827D01*
X100432234Y-137057766D01*
X100381658Y-137023972D01*
X100374513Y-137022551D01*
X100374511Y-137022550D01*
X100340627Y-137015810D01*
X100340626Y-137015810D01*
X100337057Y-137015100D01*
X99822071Y-137015100D01*
X99306944Y-137015101D01*
X99262342Y-137023972D01*
X99256284Y-137028020D01*
X99256282Y-137028021D01*
X99242376Y-137037313D01*
X99211766Y-137057766D01*
X99207716Y-137063827D01*
X99195066Y-137082760D01*
X99177972Y-137108342D01*
X99176551Y-137115487D01*
X99176550Y-137115489D01*
X99169810Y-137149373D01*
X99169100Y-137152943D01*
X99169100Y-137156583D01*
X99169101Y-137745900D01*
X99151788Y-137793466D01*
X99107951Y-137818776D01*
X99095101Y-137819900D01*
X98923339Y-137819900D01*
X98875773Y-137802587D01*
X98871013Y-137798226D01*
X98791771Y-137718984D01*
X98786588Y-137716343D01*
X98786585Y-137716341D01*
X98683245Y-137663687D01*
X98683243Y-137663686D01*
X98678055Y-137661043D01*
X98552000Y-137641078D01*
X98425945Y-137661043D01*
X98420757Y-137663686D01*
X98420755Y-137663687D01*
X98317415Y-137716341D01*
X98317412Y-137716343D01*
X98312229Y-137718984D01*
X98221984Y-137809229D01*
X98219343Y-137814412D01*
X98219341Y-137814415D01*
X98176073Y-137899334D01*
X98164043Y-137922945D01*
X98144078Y-138049000D01*
X85550500Y-138049000D01*
X85550500Y-136779000D01*
X92937078Y-136779000D01*
X92957043Y-136905055D01*
X92959686Y-136910243D01*
X92959687Y-136910245D01*
X93012341Y-137013585D01*
X93012343Y-137013588D01*
X93014984Y-137018771D01*
X93105229Y-137109016D01*
X93110412Y-137111657D01*
X93110415Y-137111659D01*
X93213755Y-137164313D01*
X93213757Y-137164314D01*
X93218945Y-137166957D01*
X93345000Y-137186922D01*
X93471055Y-137166957D01*
X93476243Y-137164314D01*
X93476245Y-137164313D01*
X93579585Y-137111659D01*
X93579588Y-137111657D01*
X93584771Y-137109016D01*
X93664013Y-137029774D01*
X93709889Y-137008382D01*
X93716339Y-137008100D01*
X98036065Y-137008100D01*
X98039938Y-137008201D01*
X98080639Y-137010334D01*
X98087897Y-137007548D01*
X98087898Y-137007548D01*
X98103829Y-137001433D01*
X98114959Y-136998136D01*
X98121826Y-136996676D01*
X98139265Y-136992969D01*
X98146380Y-136987800D01*
X98163353Y-136978584D01*
X98164299Y-136978221D01*
X98164300Y-136978220D01*
X98171564Y-136975432D01*
X98189133Y-136957863D01*
X98197963Y-136950322D01*
X98218058Y-136935722D01*
X98222454Y-136928108D01*
X98234214Y-136912782D01*
X98581382Y-136565614D01*
X98584192Y-136562947D01*
X98598995Y-136549618D01*
X98614486Y-136535670D01*
X98624594Y-136512967D01*
X98630126Y-136502779D01*
X98643661Y-136481937D01*
X98645036Y-136473253D01*
X98650523Y-136454732D01*
X98650936Y-136453805D01*
X98650937Y-136453801D01*
X98654100Y-136446697D01*
X98654100Y-136421853D01*
X98655011Y-136410277D01*
X98657680Y-136393425D01*
X98658897Y-136385742D01*
X98656884Y-136378230D01*
X98656884Y-136378226D01*
X98656622Y-136377249D01*
X98654100Y-136358096D01*
X98654100Y-135499339D01*
X98671413Y-135451773D01*
X98675774Y-135447013D01*
X98755016Y-135367771D01*
X98757657Y-135362588D01*
X98757659Y-135362585D01*
X98810313Y-135259245D01*
X98810314Y-135259243D01*
X98812957Y-135254055D01*
X98832922Y-135128000D01*
X98812957Y-135001945D01*
X98810313Y-134996755D01*
X98757659Y-134893415D01*
X98757657Y-134893412D01*
X98755016Y-134888229D01*
X98740787Y-134874000D01*
X100176078Y-134874000D01*
X100196043Y-135000055D01*
X100198686Y-135005243D01*
X100198687Y-135005245D01*
X100251341Y-135108585D01*
X100251343Y-135108588D01*
X100253984Y-135113771D01*
X100333226Y-135193013D01*
X100354618Y-135238889D01*
X100354900Y-135245339D01*
X100354900Y-136136065D01*
X100354799Y-136139938D01*
X100352666Y-136180639D01*
X100355452Y-136187897D01*
X100355452Y-136187898D01*
X100361567Y-136203829D01*
X100364864Y-136214959D01*
X100370031Y-136239265D01*
X100374997Y-136246100D01*
X100375200Y-136246379D01*
X100384416Y-136263353D01*
X100387568Y-136271564D01*
X100405137Y-136289133D01*
X100412678Y-136297963D01*
X100427278Y-136318058D01*
X100434757Y-136322376D01*
X100434892Y-136322454D01*
X100450218Y-136334214D01*
X100826786Y-136710782D01*
X100829453Y-136713592D01*
X100856730Y-136743886D01*
X100879433Y-136753994D01*
X100889621Y-136759526D01*
X100910463Y-136773061D01*
X100919146Y-136774436D01*
X100937668Y-136779923D01*
X100938595Y-136780336D01*
X100938599Y-136780337D01*
X100945703Y-136783500D01*
X100970547Y-136783500D01*
X100982123Y-136784411D01*
X101006658Y-136788297D01*
X101014170Y-136786284D01*
X101014174Y-136786284D01*
X101015151Y-136786022D01*
X101034304Y-136783500D01*
X102805184Y-136783500D01*
X102852750Y-136800813D01*
X102878060Y-136844650D01*
X102871118Y-136891095D01*
X102865689Y-136901750D01*
X102865687Y-136901755D01*
X102863043Y-136906945D01*
X102845801Y-137015812D01*
X102845067Y-137020445D01*
X102820527Y-137064717D01*
X102773270Y-137082858D01*
X102725409Y-137066378D01*
X102721844Y-137063168D01*
X102718234Y-137057766D01*
X102667658Y-137023972D01*
X102660513Y-137022551D01*
X102660511Y-137022550D01*
X102626627Y-137015810D01*
X102626626Y-137015810D01*
X102623057Y-137015100D01*
X102108071Y-137015100D01*
X101592944Y-137015101D01*
X101548342Y-137023972D01*
X101542284Y-137028020D01*
X101542282Y-137028021D01*
X101528376Y-137037313D01*
X101497766Y-137057766D01*
X101493716Y-137063827D01*
X101481066Y-137082760D01*
X101463972Y-137108342D01*
X101462551Y-137115487D01*
X101462550Y-137115489D01*
X101455810Y-137149373D01*
X101455100Y-137152943D01*
X101455101Y-138183056D01*
X101463972Y-138227658D01*
X101497766Y-138278234D01*
X101548342Y-138312028D01*
X101555487Y-138313449D01*
X101555489Y-138313450D01*
X101589373Y-138320190D01*
X101589374Y-138320190D01*
X101592943Y-138320900D01*
X102107929Y-138320900D01*
X102623056Y-138320899D01*
X102667658Y-138312028D01*
X102685998Y-138299774D01*
X102712173Y-138282284D01*
X102718234Y-138278234D01*
X102752028Y-138227658D01*
X102753451Y-138220508D01*
X102760190Y-138186627D01*
X102760190Y-138186626D01*
X102760900Y-138183057D01*
X102760900Y-137971100D01*
X102778213Y-137923534D01*
X102822050Y-137898224D01*
X102834900Y-137897100D01*
X103116065Y-137897100D01*
X103119938Y-137897201D01*
X103160639Y-137899334D01*
X103167897Y-137896548D01*
X103167898Y-137896548D01*
X103183829Y-137890433D01*
X103194959Y-137887136D01*
X103201826Y-137885676D01*
X103219265Y-137881969D01*
X103226380Y-137876800D01*
X103243353Y-137867584D01*
X103244301Y-137867220D01*
X103244302Y-137867220D01*
X103251564Y-137864432D01*
X103257062Y-137858934D01*
X103257067Y-137858931D01*
X103269134Y-137846864D01*
X103277960Y-137839325D01*
X103291768Y-137829293D01*
X103291770Y-137829291D01*
X103298058Y-137824722D01*
X103302454Y-137817108D01*
X103314214Y-137801782D01*
X103407401Y-137708596D01*
X103410211Y-137705930D01*
X103434706Y-137683874D01*
X103440486Y-137678670D01*
X103450592Y-137655972D01*
X103456131Y-137645771D01*
X103458587Y-137641989D01*
X103469661Y-137624936D01*
X103471036Y-137616252D01*
X103476523Y-137597732D01*
X103476936Y-137596805D01*
X103476937Y-137596801D01*
X103480100Y-137589697D01*
X103480100Y-137564853D01*
X103481011Y-137553276D01*
X103483680Y-137536425D01*
X103484897Y-137528742D01*
X103482884Y-137521230D01*
X103482884Y-137521226D01*
X103482622Y-137520249D01*
X103480100Y-137501096D01*
X103480100Y-137404339D01*
X103497413Y-137356773D01*
X103501774Y-137352013D01*
X103581016Y-137272771D01*
X103583657Y-137267588D01*
X103583659Y-137267585D01*
X103636313Y-137164245D01*
X103636314Y-137164243D01*
X103638957Y-137159055D01*
X103658922Y-137033000D01*
X103638957Y-136906945D01*
X103636313Y-136901755D01*
X103636311Y-136901750D01*
X103630882Y-136891095D01*
X103624713Y-136840854D01*
X103652282Y-136798401D01*
X103696816Y-136783500D01*
X103963470Y-136783500D01*
X104011036Y-136800813D01*
X104029404Y-136823904D01*
X104063984Y-136891771D01*
X104154229Y-136982016D01*
X104159412Y-136984657D01*
X104159415Y-136984659D01*
X104262755Y-137037313D01*
X104262757Y-137037314D01*
X104267945Y-137039957D01*
X104394000Y-137059922D01*
X104520055Y-137039957D01*
X104525243Y-137037314D01*
X104525245Y-137037313D01*
X104628585Y-136984659D01*
X104628588Y-136984657D01*
X104633771Y-136982016D01*
X104724016Y-136891771D01*
X104726657Y-136886588D01*
X104726659Y-136886585D01*
X104779313Y-136783245D01*
X104779314Y-136783243D01*
X104781957Y-136778055D01*
X104801922Y-136652000D01*
X104781957Y-136525945D01*
X104772638Y-136507655D01*
X104726659Y-136417415D01*
X104726657Y-136417412D01*
X104724016Y-136412229D01*
X104633771Y-136321984D01*
X104628588Y-136319343D01*
X104628585Y-136319341D01*
X104525245Y-136266687D01*
X104525243Y-136266686D01*
X104520055Y-136264043D01*
X104394000Y-136244078D01*
X104267945Y-136264043D01*
X104262757Y-136266686D01*
X104262755Y-136266687D01*
X104163549Y-136317235D01*
X104129954Y-136325300D01*
X103953348Y-136325300D01*
X103905782Y-136307987D01*
X103880472Y-136264150D01*
X103889262Y-136214300D01*
X103901022Y-136198974D01*
X103904133Y-136195863D01*
X103912963Y-136188322D01*
X103913547Y-136187898D01*
X103933058Y-136173722D01*
X103937454Y-136166108D01*
X103949214Y-136150782D01*
X104043422Y-136056574D01*
X104089298Y-136035182D01*
X104095748Y-136034900D01*
X104819450Y-136034899D01*
X104909056Y-136034899D01*
X104953658Y-136026028D01*
X104960715Y-136021313D01*
X104998173Y-135996284D01*
X105004234Y-135992234D01*
X105038028Y-135941658D01*
X105046900Y-135897057D01*
X105046899Y-134866944D01*
X105038028Y-134822342D01*
X105021753Y-134797984D01*
X105008284Y-134777827D01*
X105004234Y-134771766D01*
X104953658Y-134737972D01*
X104946513Y-134736551D01*
X104946511Y-134736550D01*
X104912627Y-134729810D01*
X104912626Y-134729810D01*
X104909057Y-134729100D01*
X104394071Y-134729100D01*
X103878944Y-134729101D01*
X103834342Y-134737972D01*
X103828284Y-134742020D01*
X103828282Y-134742021D01*
X103819416Y-134747945D01*
X103783766Y-134771766D01*
X103749972Y-134822342D01*
X103748551Y-134829487D01*
X103748550Y-134829489D01*
X103741810Y-134863373D01*
X103741100Y-134866943D01*
X103741101Y-135281922D01*
X103741101Y-135680250D01*
X103723788Y-135727816D01*
X103719427Y-135732576D01*
X103685777Y-135766226D01*
X103639901Y-135787618D01*
X103633451Y-135787900D01*
X102860339Y-135787900D01*
X102812773Y-135770587D01*
X102808013Y-135766226D01*
X102728771Y-135686984D01*
X102723588Y-135684343D01*
X102723585Y-135684341D01*
X102620245Y-135631687D01*
X102620243Y-135631686D01*
X102615055Y-135629043D01*
X102489000Y-135609078D01*
X102362945Y-135629043D01*
X102357757Y-135631686D01*
X102357755Y-135631687D01*
X102254415Y-135684341D01*
X102254412Y-135684343D01*
X102249229Y-135686984D01*
X102158984Y-135777229D01*
X102156343Y-135782412D01*
X102156341Y-135782415D01*
X102106677Y-135879887D01*
X102101043Y-135890945D01*
X102081078Y-136017000D01*
X102101043Y-136143055D01*
X102103686Y-136148243D01*
X102103687Y-136148245D01*
X102139079Y-136217705D01*
X102145247Y-136267946D01*
X102117678Y-136310399D01*
X102073144Y-136325300D01*
X101119948Y-136325300D01*
X101072382Y-136307987D01*
X101067622Y-136303626D01*
X100834774Y-136070777D01*
X100813382Y-136024900D01*
X100813100Y-136018451D01*
X100813100Y-135245339D01*
X100830413Y-135197773D01*
X100834774Y-135193013D01*
X100914016Y-135113771D01*
X100916657Y-135108588D01*
X100916659Y-135108585D01*
X100969313Y-135005245D01*
X100969314Y-135005243D01*
X100971957Y-135000055D01*
X100991922Y-134874000D01*
X100971957Y-134747945D01*
X100968939Y-134742021D01*
X100916659Y-134639415D01*
X100916657Y-134639412D01*
X100914016Y-134634229D01*
X100823771Y-134543984D01*
X100818588Y-134541343D01*
X100818585Y-134541341D01*
X100715245Y-134488687D01*
X100715243Y-134488686D01*
X100710055Y-134486043D01*
X100584000Y-134466078D01*
X100457945Y-134486043D01*
X100452757Y-134488686D01*
X100452755Y-134488687D01*
X100349415Y-134541341D01*
X100349412Y-134541343D01*
X100344229Y-134543984D01*
X100253984Y-134634229D01*
X100251343Y-134639412D01*
X100251341Y-134639415D01*
X100199061Y-134742021D01*
X100196043Y-134747945D01*
X100176078Y-134874000D01*
X98740787Y-134874000D01*
X98664771Y-134797984D01*
X98659588Y-134795343D01*
X98659585Y-134795341D01*
X98556245Y-134742687D01*
X98556243Y-134742686D01*
X98551055Y-134740043D01*
X98425000Y-134720078D01*
X98298945Y-134740043D01*
X98293757Y-134742686D01*
X98293755Y-134742687D01*
X98190415Y-134795341D01*
X98190412Y-134795343D01*
X98185229Y-134797984D01*
X98094984Y-134888229D01*
X98092343Y-134893412D01*
X98092341Y-134893415D01*
X98039687Y-134996755D01*
X98037043Y-135001945D01*
X98017078Y-135128000D01*
X98037043Y-135254055D01*
X98039686Y-135259243D01*
X98039687Y-135259245D01*
X98092341Y-135362585D01*
X98092343Y-135362588D01*
X98094984Y-135367771D01*
X98174226Y-135447013D01*
X98195618Y-135492889D01*
X98195900Y-135499339D01*
X98195900Y-136272452D01*
X98178587Y-136320018D01*
X98174226Y-136324778D01*
X97970777Y-136528226D01*
X97924900Y-136549618D01*
X97918451Y-136549900D01*
X93716339Y-136549900D01*
X93668773Y-136532587D01*
X93664013Y-136528226D01*
X93584771Y-136448984D01*
X93579588Y-136446343D01*
X93579585Y-136446341D01*
X93476245Y-136393687D01*
X93476243Y-136393686D01*
X93471055Y-136391043D01*
X93345000Y-136371078D01*
X93218945Y-136391043D01*
X93213757Y-136393686D01*
X93213755Y-136393687D01*
X93110415Y-136446341D01*
X93110412Y-136446343D01*
X93105229Y-136448984D01*
X93014984Y-136539229D01*
X93012343Y-136544412D01*
X93012341Y-136544415D01*
X93002899Y-136562947D01*
X92957043Y-136652945D01*
X92937078Y-136779000D01*
X85550500Y-136779000D01*
X85550500Y-135636000D01*
X87349078Y-135636000D01*
X87369043Y-135762055D01*
X87371686Y-135767243D01*
X87371687Y-135767245D01*
X87424341Y-135870585D01*
X87424343Y-135870588D01*
X87426984Y-135875771D01*
X87517229Y-135966016D01*
X87522412Y-135968657D01*
X87522415Y-135968659D01*
X87625755Y-136021313D01*
X87625757Y-136021314D01*
X87630945Y-136023957D01*
X87757000Y-136043922D01*
X87883055Y-136023957D01*
X87888243Y-136021314D01*
X87888245Y-136021313D01*
X87991585Y-135968659D01*
X87991588Y-135968657D01*
X87996771Y-135966016D01*
X88076013Y-135886774D01*
X88121889Y-135865382D01*
X88128339Y-135865100D01*
X96004065Y-135865100D01*
X96007938Y-135865201D01*
X96048639Y-135867334D01*
X96055897Y-135864548D01*
X96055898Y-135864548D01*
X96071829Y-135858433D01*
X96082959Y-135855136D01*
X96089826Y-135853676D01*
X96107265Y-135849969D01*
X96114380Y-135844800D01*
X96131353Y-135835584D01*
X96132299Y-135835221D01*
X96132300Y-135835220D01*
X96139564Y-135832432D01*
X96157133Y-135814863D01*
X96165963Y-135807322D01*
X96186058Y-135792722D01*
X96190454Y-135785108D01*
X96202214Y-135769782D01*
X96674889Y-135297108D01*
X96720766Y-135275716D01*
X96738787Y-135276345D01*
X96774000Y-135281922D01*
X96900055Y-135261957D01*
X96905243Y-135259314D01*
X96905245Y-135259313D01*
X97008585Y-135206659D01*
X97008588Y-135206657D01*
X97013771Y-135204016D01*
X97104016Y-135113771D01*
X97106657Y-135108588D01*
X97106659Y-135108585D01*
X97159313Y-135005245D01*
X97159314Y-135005243D01*
X97161957Y-135000055D01*
X97181922Y-134874000D01*
X97161957Y-134747945D01*
X97158939Y-134742021D01*
X97106659Y-134639415D01*
X97106657Y-134639412D01*
X97104016Y-134634229D01*
X97013771Y-134543984D01*
X97008588Y-134541343D01*
X97008585Y-134541341D01*
X96905245Y-134488687D01*
X96905243Y-134488686D01*
X96900055Y-134486043D01*
X96774000Y-134466078D01*
X96647945Y-134486043D01*
X96642757Y-134488686D01*
X96642755Y-134488687D01*
X96539415Y-134541341D01*
X96539412Y-134541343D01*
X96534229Y-134543984D01*
X96443984Y-134634229D01*
X96418514Y-134684217D01*
X96381495Y-134718738D01*
X96330945Y-134721388D01*
X96290519Y-134690925D01*
X96279491Y-134662198D01*
X96273868Y-134626698D01*
X96272957Y-134620945D01*
X96262233Y-134599897D01*
X96217659Y-134512415D01*
X96217657Y-134512412D01*
X96215016Y-134507229D01*
X96124771Y-134416984D01*
X96119588Y-134414343D01*
X96119585Y-134414341D01*
X96016245Y-134361687D01*
X96016243Y-134361686D01*
X96011055Y-134359043D01*
X95885000Y-134339078D01*
X95849790Y-134344655D01*
X95800102Y-134334997D01*
X95785888Y-134323892D01*
X95671596Y-134209599D01*
X95668930Y-134206789D01*
X95646874Y-134182294D01*
X95641670Y-134176514D01*
X95618972Y-134166408D01*
X95608771Y-134160869D01*
X95587936Y-134147339D01*
X95579252Y-134145964D01*
X95560732Y-134140477D01*
X95559805Y-134140064D01*
X95559801Y-134140063D01*
X95552697Y-134136900D01*
X95527853Y-134136900D01*
X95516276Y-134135989D01*
X95504451Y-134134116D01*
X95491742Y-134132103D01*
X95484230Y-134134116D01*
X95484226Y-134134116D01*
X95483249Y-134134378D01*
X95464096Y-134136900D01*
X92581548Y-134136900D01*
X92533982Y-134119587D01*
X92529222Y-134115226D01*
X91861605Y-133447608D01*
X91858938Y-133444798D01*
X91836873Y-133420293D01*
X91831670Y-133414514D01*
X91808972Y-133404408D01*
X91798771Y-133398869D01*
X91777936Y-133385339D01*
X91769252Y-133383964D01*
X91750732Y-133378477D01*
X91749805Y-133378064D01*
X91749801Y-133378063D01*
X91742697Y-133374900D01*
X91717853Y-133374900D01*
X91706276Y-133373989D01*
X91694451Y-133372116D01*
X91681742Y-133370103D01*
X91674230Y-133372116D01*
X91674226Y-133372116D01*
X91673249Y-133372378D01*
X91654096Y-133374900D01*
X88255339Y-133374900D01*
X88207773Y-133357587D01*
X88203013Y-133353226D01*
X88123771Y-133273984D01*
X88118588Y-133271343D01*
X88118585Y-133271341D01*
X88015245Y-133218687D01*
X88015243Y-133218686D01*
X88010055Y-133216043D01*
X87884000Y-133196078D01*
X87757945Y-133216043D01*
X87752757Y-133218686D01*
X87752755Y-133218687D01*
X87649415Y-133271341D01*
X87649412Y-133271343D01*
X87644229Y-133273984D01*
X87553984Y-133364229D01*
X87551343Y-133369412D01*
X87551341Y-133369415D01*
X87511500Y-133447608D01*
X87496043Y-133477945D01*
X87476078Y-133604000D01*
X87496043Y-133730055D01*
X87498686Y-133735243D01*
X87498687Y-133735245D01*
X87551341Y-133838585D01*
X87551343Y-133838588D01*
X87553984Y-133843771D01*
X87644229Y-133934016D01*
X87649412Y-133936657D01*
X87649415Y-133936659D01*
X87752755Y-133989313D01*
X87752757Y-133989314D01*
X87757945Y-133991957D01*
X87884000Y-134011922D01*
X88010055Y-133991957D01*
X88015243Y-133989314D01*
X88015245Y-133989313D01*
X88118585Y-133936659D01*
X88118588Y-133936657D01*
X88123771Y-133934016D01*
X88203013Y-133854774D01*
X88248889Y-133833382D01*
X88255339Y-133833100D01*
X91568452Y-133833100D01*
X91616018Y-133850413D01*
X91620778Y-133854774D01*
X91972792Y-134206789D01*
X92288395Y-134522392D01*
X92291062Y-134525202D01*
X92318330Y-134555486D01*
X92325434Y-134558649D01*
X92341021Y-134565589D01*
X92351223Y-134571128D01*
X92372064Y-134584662D01*
X92380749Y-134586037D01*
X92399270Y-134591523D01*
X92407303Y-134595100D01*
X92432147Y-134595100D01*
X92443722Y-134596011D01*
X92468259Y-134599897D01*
X92475771Y-134597884D01*
X92475775Y-134597884D01*
X92476752Y-134597622D01*
X92495905Y-134595100D01*
X95378452Y-134595100D01*
X95426018Y-134612413D01*
X95430778Y-134616774D01*
X95461892Y-134647888D01*
X95483284Y-134693764D01*
X95482655Y-134711787D01*
X95477078Y-134747000D01*
X95497043Y-134873055D01*
X95499686Y-134878243D01*
X95499687Y-134878245D01*
X95552341Y-134981585D01*
X95552343Y-134981588D01*
X95554984Y-134986771D01*
X95645229Y-135077016D01*
X95650412Y-135079657D01*
X95650415Y-135079659D01*
X95753755Y-135132313D01*
X95753757Y-135132314D01*
X95758945Y-135134957D01*
X95885000Y-135154922D01*
X95997599Y-135137088D01*
X96047287Y-135146747D01*
X96079142Y-135186085D01*
X96078259Y-135236696D01*
X96061500Y-135262503D01*
X95938777Y-135385226D01*
X95892901Y-135406618D01*
X95886451Y-135406900D01*
X88128339Y-135406900D01*
X88080773Y-135389587D01*
X88076013Y-135385226D01*
X87996771Y-135305984D01*
X87991588Y-135303343D01*
X87991585Y-135303341D01*
X87888245Y-135250687D01*
X87888243Y-135250686D01*
X87883055Y-135248043D01*
X87757000Y-135228078D01*
X87630945Y-135248043D01*
X87625757Y-135250686D01*
X87625755Y-135250687D01*
X87522415Y-135303341D01*
X87522412Y-135303343D01*
X87517229Y-135305984D01*
X87426984Y-135396229D01*
X87424343Y-135401412D01*
X87424341Y-135401415D01*
X87377733Y-135492889D01*
X87369043Y-135509945D01*
X87349078Y-135636000D01*
X85550500Y-135636000D01*
X85550500Y-126619000D01*
X85567813Y-126571434D01*
X85611650Y-126546124D01*
X85624500Y-126545000D01*
X88655973Y-126545000D01*
X88703539Y-126562313D01*
G37*
G04 #@! TD.AperFunction*
M02*
