G04 #@! TF.GenerationSoftware,KiCad,Pcbnew,(6.0.9)*
G04 #@! TF.CreationDate,2024-03-06T19:42:55+11:00*
G04 #@! TF.ProjectId,psneev8,70736e65-6576-4382-9e6b-696361645f70,rev?*
G04 #@! TF.SameCoordinates,Original*
G04 #@! TF.FileFunction,Soldermask,Top*
G04 #@! TF.FilePolarity,Negative*
%FSLAX46Y46*%
G04 Gerber Fmt 4.6, Leading zero omitted, Abs format (unit mm)*
G04 Created by KiCad (PCBNEW (6.0.9)) date 2024-03-06 19:42:55*
%MOMM*%
%LPD*%
G01*
G04 APERTURE LIST*
G04 Aperture macros list*
%AMRoundRect*
0 Rectangle with rounded corners*
0 $1 Rounding radius*
0 $2 $3 $4 $5 $6 $7 $8 $9 X,Y pos of 4 corners*
0 Add a 4 corners polygon primitive as box body*
4,1,4,$2,$3,$4,$5,$6,$7,$8,$9,$2,$3,0*
0 Add four circle primitives for the rounded corners*
1,1,$1+$1,$2,$3*
1,1,$1+$1,$4,$5*
1,1,$1+$1,$6,$7*
1,1,$1+$1,$8,$9*
0 Add four rect primitives between the rounded corners*
20,1,$1+$1,$2,$3,$4,$5,0*
20,1,$1+$1,$4,$5,$6,$7,0*
20,1,$1+$1,$6,$7,$8,$9,0*
20,1,$1+$1,$8,$9,$2,$3,0*%
G04 Aperture macros list end*
%ADD10R,1.000000X1.000000*%
%ADD11RoundRect,0.155000X0.155000X-0.212500X0.155000X0.212500X-0.155000X0.212500X-0.155000X-0.212500X0*%
%ADD12R,1.900000X0.400000*%
%ADD13R,1.600000X0.550000*%
%ADD14R,0.550000X1.600000*%
%ADD15RoundRect,0.160000X-0.197500X-0.160000X0.197500X-0.160000X0.197500X0.160000X-0.197500X0.160000X0*%
G04 APERTURE END LIST*
D10*
X86487000Y-133604000D03*
X86487000Y-137668000D03*
D11*
X90932000Y-132012500D03*
X90932000Y-130877500D03*
D12*
X90932000Y-135693000D03*
X90932000Y-134493000D03*
X90932000Y-133293000D03*
D10*
X104394000Y-133350000D03*
X86487000Y-131572000D03*
X86487000Y-135636000D03*
X104394000Y-137668000D03*
X86487000Y-127508000D03*
X104394000Y-130302000D03*
D13*
X93680000Y-129534000D03*
X93680000Y-130334000D03*
X93680000Y-131134000D03*
X93680000Y-131934000D03*
X93680000Y-132734000D03*
X93680000Y-133534000D03*
X93680000Y-134334000D03*
X93680000Y-135134000D03*
D14*
X95130000Y-136584000D03*
X95930000Y-136584000D03*
X96730000Y-136584000D03*
X97530000Y-136584000D03*
X98330000Y-136584000D03*
X99130000Y-136584000D03*
X99930000Y-136584000D03*
X100730000Y-136584000D03*
D13*
X102180000Y-135134000D03*
X102180000Y-134334000D03*
X102180000Y-133534000D03*
X102180000Y-132734000D03*
X102180000Y-131934000D03*
X102180000Y-131134000D03*
X102180000Y-130334000D03*
X102180000Y-129534000D03*
D14*
X100730000Y-128084000D03*
X99930000Y-128084000D03*
X99130000Y-128084000D03*
X98330000Y-128084000D03*
X97530000Y-128084000D03*
X96730000Y-128084000D03*
X95930000Y-128084000D03*
X95130000Y-128084000D03*
D10*
X86487000Y-129540000D03*
X89880000Y-137690000D03*
D15*
X90715500Y-127508000D03*
X91910500Y-127508000D03*
M02*
